<svg width="122" height="96" viewBox="0 0 122 96" fill="none" xmlns="http://www.w3.org/2000/svg">
<g clip-path="url(#clip0_182_321)">
<path d="M68.6221 12.8376V53.5985V57.5028H64.7161H59.4683V16.7419V12.8376H68.6221Z" fill="black"/>
<path d="M41.2028 12.8393H32.0489V36.4757C32.0489 36.5828 32.0454 36.6898 32.0454 36.7968V45.2161H41.2449V35.451C41.3187 25.8157 48.1209 22.2413 56.0242 22.1518V12.8446C50.2706 12.8446 45.1896 14.2747 41.2028 17.042V12.8393Z" fill="black"/>
<path d="M32.5303 48.2799H29.7395C28.886 48.2799 28.0341 48.2816 27.1806 48.2799C23.6627 48.2658 19.639 48.0167 16.5216 46.1128C15.9367 45.7566 15.387 45.3442 14.8847 44.8792C14.3912 44.423 13.9451 43.9176 13.5517 43.3736C13.1477 42.8156 12.8 42.2172 12.5031 41.5961C12.1888 40.9363 11.9306 40.2484 11.7198 39.5483C11.4915 38.7885 11.3176 38.0129 11.1842 37.232C11.0384 36.3775 10.94 35.5141 10.875 34.649C10.8048 33.7015 10.7767 32.7522 10.7749 31.8028V22.129H28.6822V12.8937H10.7767V3.50587H0V30.1569C0 48.4536 7.23247 57.2378 25.3891 57.4958H25.3944C25.6684 57.4993 25.9441 57.501 26.2234 57.501V57.4958H36.6313V48.2799H32.5285H32.5303Z" fill="black"/>
<path d="M39.1724 48.2799H37.8833V57.4958H39.1724V48.2799Z" fill="#1A1A1A"/>
<path d="M41.1905 48.2799H40.4985V57.4958H41.1905V48.2799Z" fill="#1A1A1A"/>
<path d="M119.982 53.9196H118.693V63.0232H119.982V53.9196Z" fill="#1A1A1A"/>
<path d="M122 53.9196H121.308V63.0232H122V53.9196Z" fill="#1A1A1A"/>
<path d="M64.0876 0.5C61.4075 0.5 59.2561 2.76362 59.4457 5.48171C59.6038 7.77516 61.4637 9.63168 63.7592 9.78961C66.478 9.97561 68.7419 7.8278 68.7419 5.15182C68.7419 2.47584 66.6571 0.5 64.0876 0.5Z" fill="black"/>
<path d="M72.235 15.0328C72.242 15.6276 72.3052 22.1728 72.314 22.1728C73.3836 22.1693 74.3338 22.15 75.8038 22.143C76.7943 22.1377 78.3645 22.0921 81.5135 22.1728C86.2362 22.2921 91.4823 22.2992 95.2601 25.6156C97.2957 27.4037 98.6603 30.4798 97.6803 33.1558C96.7969 35.5685 94.0483 36.8354 91.744 37.5409C88.9304 38.4024 85.9781 38.5323 83.0626 38.7271C81.2905 38.8446 79.8187 38.906 78.7983 38.9411C78.8088 40.3397 78.8194 42.4383 78.8299 43.8369C78.8404 45.2196 78.851 46.6041 78.8615 48.0307C83.3612 47.9886 86.9774 47.8465 90.4514 48.4554C94.2678 49.1239 98.0158 50.919 100.373 53.9916C90 53.6687 79.6255 59.0066 73.8613 67.6294C71.4148 71.2898 69.7533 75.5644 69.6778 79.967C69.6023 84.3679 71.2339 88.8846 74.5059 91.8308C78.2134 95.1684 83.6703 96.1598 88.5475 95.0982C93.4248 94.0365 97.7471 91.1219 101.219 87.5405C107.519 81.0409 111.302 72.0742 111.171 63.0267C113.248 63.0285 115.324 63.0302 117.402 63.0338C117.432 60.0138 117.463 56.9922 117.493 53.9723L109.927 53.9512C108.471 48.6273 104.282 45.46 99.2066 43.2824C99.8142 43.1069 106.249 39.7957 107.995 34.0524C109.161 30.2201 107.668 26.851 107.008 25.3612C105.141 21.1481 101.838 19.0143 99.8037 17.7C96.4 15.5013 93.3142 14.7661 90.7464 14.1607C87.3831 13.3675 80.8865 13.1973 77.3687 12.9955C75.24 12.8744 73.4626 12.8464 72.2121 12.8464L72.2367 15.0363L72.235 15.0328ZM102.475 63.6233C102.658 65.1938 102.686 66.7924 102.398 68.3489C101.943 70.7967 100.724 73.0428 99.3769 75.1538C97.7664 77.6753 95.9328 80.0881 93.6602 82.0622C91.3875 84.0363 88.6494 85.5611 85.6654 86.1174C84.4764 86.3385 83.2031 86.3981 82.0984 85.9156C80.5739 85.2505 79.6519 83.6625 79.3287 82.0604C77.9219 75.0766 84.4712 68.3875 90.3565 65.6009C94.0922 63.8322 98.3442 63.1197 102.47 63.5742C102.472 63.5918 102.473 63.6076 102.475 63.6251V63.6233Z" fill="black"/>
</g>
<defs>
<clipPath id="clip0_182_321">
<rect width="122" height="95" fill="white" transform="translate(0 0.5)"/>
</clipPath>
</defs>
</svg>
