<svg width="345" height="1011" viewBox="0 0 345 1011" fill="none" xmlns="http://www.w3.org/2000/svg">
<path d="M301.743 49.4093C290.256 49.5449 163.875 50.7653 163.875 50.9349C163.942 71.581 164.315 89.9218 164.451 118.298C164.552 137.418 165.433 167.726 163.875 228.512C161.571 319.674 161.435 420.938 97.3973 493.861C62.8711 533.153 3.4751 559.494 -48.1957 540.577C-94.7841 523.525 -119.247 470.469 -132.868 425.99C-149.504 371.679 -152.012 314.69 -155.772 258.413C-158.043 224.207 -159.229 195.797 -159.906 176.1C-186.911 176.303 -227.434 176.507 -254.438 176.71C-281.138 176.914 -307.871 177.117 -335.417 177.32C-334.604 264.177 -331.86 333.98 -343.617 401.038C-356.526 474.706 -391.188 547.052 -450.516 592.549C-444.282 392.325 -547.352 192.068 -713.851 80.8023C-784.428 33.6111 -866.966 1.54007 -951.977 0.0483969C-1036.95 -1.40938 -1124.17 30.0853 -1181.06 93.2442C-1245.5 164.811 -1264.64 270.143 -1244.15 364.288C-1223.65 458.433 -1167.37 541.866 -1098.21 608.889C-972.713 730.495 -799.573 803.519 -624.875 800.976C-624.909 841.082 -624.943 881.154 -625.011 921.26C-566.699 921.836 -508.354 922.446 -450.042 923.023L-449.635 776.974C-346.836 748.869 -285.678 668.014 -243.63 570.038C-240.242 581.768 -176.305 705.984 -65.408 739.682C8.59138 762.193 73.6457 733.376 102.412 720.629C183.764 684.592 224.965 620.823 250.343 581.564C292.798 515.863 306.994 456.298 318.684 406.733C333.965 341.812 337.251 216.409 341.148 148.504C343.486 107.415 344.028 73.1066 344.028 48.9347L301.743 49.4093ZM-636.497 633.129C-666.822 636.655 -697.689 637.197 -727.743 631.637C-775.009 622.857 -818.378 599.329 -859.139 573.326C-907.828 542.238 -954.416 506.845 -992.534 462.976C-1030.65 419.107 -1060.1 366.255 -1070.84 308.656C-1075.11 285.704 -1076.26 261.126 -1066.94 239.801C-1054.1 210.375 -1023.43 192.576 -992.5 186.338C-857.648 159.183 -728.488 285.603 -674.683 399.207C-640.529 471.316 -626.773 553.392 -635.548 633.027C-635.887 633.061 -636.192 633.095 -636.531 633.129L-636.497 633.129Z" fill="#DDFFBB"/>
</svg>
