<svg width="453" height="543" viewBox="0 0 453 543" fill="none" xmlns="http://www.w3.org/2000/svg">
<path d="M350.293 216.682L343.636 219.523L363.702 266.544L370.358 263.703L350.293 216.682Z" fill="#DDFFBB"/>
<path d="M360.712 212.236L357.139 213.761L377.205 260.781L380.778 259.257L360.712 212.236Z" fill="#DDFFBB"/>
<path d="M18.0436 121.036C19.391 124.093 34.144 157.76 34.1893 157.74C39.7043 155.365 44.5678 153.172 52.1427 149.897C57.2458 147.687 65.2525 143.992 81.6903 137.47C106.339 127.68 133.442 116.157 160.258 124.963C174.71 129.713 188.536 142.594 189.374 158.575C190.131 172.984 178.731 185.584 168.388 194.305C155.759 204.954 140.801 212.13 126.176 219.561C117.285 224.072 109.821 227.633 104.63 230.062C107.767 237.263 112.447 248.079 115.584 255.279C118.686 262.398 121.792 269.526 124.991 276.871C148.132 266.739 166.491 258.037 185.77 253.527C206.95 248.571 230.259 249.585 249.201 260.261C194.931 281.449 153.128 331.879 142.371 389.118C137.804 413.384 138.647 439.123 147.952 462.033C157.262 484.931 175.642 504.665 199.031 512.672C225.531 521.742 255.892 514.839 278.735 498.609C301.579 482.379 317.472 457.801 327.507 431.651C345.71 384.199 345.479 329.55 324.857 283.109C335.589 278.54 346.312 273.975 357.048 269.415C350.546 253.751 344.049 238.075 337.547 222.411L298.433 238.973C279.181 214.683 250.571 207.554 219.563 207.49C222.314 205.245 248.243 173.963 244.598 140.452C242.173 118.088 227.038 103.975 220.345 97.7355C201.419 80.088 179.658 76.3462 166.26 74.0391C143.839 70.1825 126.285 73.1844 111.692 75.7153C92.5815 79.0385 58.6618 92.4741 40.0528 99.1832C28.7948 103.248 19.5556 107.019 13.0898 109.779L18.0436 121.036ZM281.286 305.378C285.69 313.087 289.359 321.282 291.302 329.956C294.349 343.602 293.006 357.888 290.703 371.76C287.945 388.333 283.796 404.835 276.412 420.039C269.029 435.243 258.252 449.152 244.071 458.6C238.419 462.362 231.976 465.476 225.208 465.417C215.87 465.341 207.609 459.171 202.409 451.608C179.752 418.636 198.825 369.655 223.072 342.295C238.462 324.927 258.846 311.879 281.15 305.136C281.198 305.222 281.242 305.3 281.29 305.387L281.286 305.378Z" fill="#DDFFBB"/>
</svg>
