<svg width="765" height="1597" viewBox="0 0 765 1597" fill="none" xmlns="http://www.w3.org/2000/svg">
<path d="M725.062 793.155H700.178V968.937H725.062V793.155Z" fill="#FBF2E6"/>
<path d="M764.015 793.155H750.657V968.937H764.015V793.155Z" fill="#FBF2E6"/>
<path d="M-196.591 42.2853C-196.455 53.7715 -195.235 180.153 -195.065 180.153C-174.419 180.085 -156.078 179.713 -127.702 179.577C-108.582 179.475 -78.2737 178.595 -17.488 180.153C73.6737 182.457 174.938 182.593 247.861 246.631C287.153 281.157 313.494 340.553 294.577 392.224C277.525 438.812 224.469 463.275 179.99 476.896C125.679 493.532 68.6902 496.039 12.4133 499.8C-21.7935 502.07 -50.2031 503.256 -69.9 503.934C-69.6966 530.938 -69.4932 571.462 -69.2898 598.466C-69.0864 625.166 -68.883 651.899 -68.6796 679.445C18.1766 678.632 87.9803 675.888 155.038 687.645C228.706 700.554 301.052 735.216 346.549 794.544C146.325 788.31 -53.9323 891.38 -165.198 1057.88C-212.389 1128.46 -244.46 1210.99 -245.952 1296C-247.409 1380.98 -215.915 1468.2 -152.756 1525.08C-81.1893 1589.53 24.1433 1608.67 118.288 1588.17C212.433 1567.67 295.866 1511.4 362.889 1442.24C484.495 1316.74 557.519 1143.6 554.976 968.903C595.082 968.937 635.154 968.971 675.26 969.039C675.836 910.727 676.446 852.381 677.023 794.07L530.974 793.663C502.869 690.864 422.014 629.706 324.038 587.658C335.768 584.269 459.984 520.333 493.682 409.436C516.193 335.436 487.376 270.382 474.629 241.616C438.592 160.264 374.823 119.063 335.564 93.685C269.863 51.2303 210.298 37.0335 160.733 25.3441C95.8116 10.0631 -29.5909 6.77649 -97.496 2.88001C-138.585 0.54212 -172.893 0 -197.065 0L-196.591 42.2853ZM387.129 980.525C390.655 1010.85 391.197 1041.72 385.637 1071.77C376.857 1119.04 353.329 1162.41 327.326 1203.17C296.238 1251.86 260.845 1298.44 216.976 1336.56C173.107 1374.68 120.255 1404.12 62.6557 1414.86C39.7042 1419.13 15.1255 1420.29 -6.19868 1410.97C-35.6254 1398.13 -53.4238 1367.46 -59.6617 1336.53C-86.817 1201.68 39.6025 1072.52 153.207 1018.71C225.316 984.557 307.392 970.801 387.027 979.576C387.061 979.915 387.095 980.22 387.129 980.559V980.525Z" fill="#FBF2E6"/>
</svg>
