<svg width="1440" height="892" viewBox="0 0 1440 892" fill="none" xmlns="http://www.w3.org/2000/svg">
<path d="M-58.7283 842.101C-47.2422 841.966 79.1394 840.745 79.1394 840.576C79.0717 819.93 78.699 801.589 78.5634 773.213C78.4618 754.092 77.5808 723.784 79.1394 662.999C81.4434 571.837 81.579 470.572 145.617 397.65C180.143 358.358 239.539 332.016 291.21 350.933C337.798 367.986 362.261 421.042 375.882 465.521C392.518 519.832 395.026 576.82 398.787 633.097C401.057 667.304 402.243 695.714 402.92 715.411C429.925 715.207 470.448 715.004 497.452 714.8C524.152 714.597 550.885 714.394 578.432 714.19C577.618 627.334 574.874 557.53 586.631 490.473C599.54 416.804 634.202 344.458 693.53 298.962C687.296 499.185 790.366 699.443 956.865 810.708C1027.44 857.899 1109.98 889.971 1194.99 891.462C1279.97 892.92 1367.18 861.425 1424.07 798.266C1488.51 726.7 1507.66 621.367 1487.16 527.222C1466.66 433.077 1410.38 349.645 1341.23 282.621C1215.73 161.016 1042.59 87.9916 867.889 90.5343C867.923 50.4285 867.957 10.3567 868.025 -29.749C809.713 -30.3254 751.368 -30.9356 693.056 -31.512L692.649 114.537C589.85 142.641 528.692 223.497 486.644 321.473C483.256 309.743 419.319 185.527 308.422 151.829C234.423 129.318 169.368 158.134 140.602 170.881C59.2504 206.919 18.0493 270.688 -7.32866 309.946C-49.7834 375.648 -63.9801 435.213 -75.6696 484.777C-90.9506 549.699 -94.2372 675.102 -98.1337 743.007C-100.472 784.096 -101.014 818.404 -101.014 842.576L-58.7283 842.101ZM879.511 258.382C909.836 254.856 940.703 254.313 970.757 259.873C1018.02 268.654 1061.39 292.182 1102.15 318.184C1150.84 349.272 1197.43 384.665 1235.55 428.534C1273.67 472.403 1303.11 525.256 1313.85 582.855C1318.12 605.806 1319.27 630.385 1309.95 651.709C1297.11 681.136 1266.45 698.934 1235.51 705.172C1100.66 732.328 971.502 605.908 917.697 492.303C883.543 420.194 869.787 338.118 878.562 258.483C878.901 258.449 879.206 258.415 879.545 258.382L879.511 258.382Z" fill="#DDFFBB"/>
</svg>
