<svg width="94" height="94" viewBox="0 0 94 94" fill="none" xmlns="http://www.w3.org/2000/svg">
<circle cx="47" cy="47" r="47" fill="#B9FA98"/>
<path d="M53.8253 32.2064C62.1407 28.6269 68.3693 39.2993 61.1554 44.7565L65.4263 52.2438C66.4193 54.4845 65.3399 57.294 63.0929 58.2729C61.6677 58.8936 60.2315 58.6877 58.7121 58.6045C53.808 58.3373 49.6031 57.6491 44.7211 58.9926C44.1507 59.1497 42.1771 59.7704 41.7984 60.0799C41.6209 60.2245 41.921 60.6283 42.0168 60.8059C43.255 63.1298 47.0906 68.5823 47.3263 70.8167C47.9438 76.6746 40.6671 79.5029 37.1568 74.8581L31.8913 65.6848C31.764 65.5921 30.6673 66.0525 30.3938 66.1122C18.3152 68.7787 11.7486 53.2463 22.2482 46.4174C28.8885 42.0978 32.9394 41.4426 37.3438 34.0543C39.0156 31.2495 40.1721 27.7722 41.8707 25.1465C43.7971 22.1673 47.7113 22.1579 49.7461 25.0286C51.1305 26.9818 52.3231 29.5587 53.6069 31.6564C53.7106 31.8261 53.7907 32.01 53.8268 32.2064H53.8253ZM45.5413 25.8724C45.0621 25.9479 44.6818 26.2417 44.4131 26.6314C43.222 28.3488 42.185 31.3139 41.1558 33.2733C39.0031 37.3682 36.3083 41.254 32.424 43.8765L32.3863 44.0305L40.2208 57.5375C44.08 55.6991 48.4388 55.0674 52.7065 55.1837C55.439 55.2576 58.2281 55.7855 60.9512 55.7887C62.0888 55.7887 62.986 54.9087 62.8493 53.7711L47.1016 26.3753C46.6428 25.9573 46.1667 25.7719 45.5413 25.8709V25.8724ZM55.4704 34.6844L59.7648 42.1025C63.5391 38.7871 60.1561 33.1759 55.4704 34.6844ZM29.891 45.5296C29.7465 45.429 28.3307 46.2901 28.0494 46.4472C24.8707 48.2338 21.1545 49.8271 20.1992 53.6815C18.6278 60.0218 24.6915 65.2244 30.7191 62.9051L37.5637 59.0099L29.891 45.528V45.5296ZM34.5013 64.1543C34.4525 64.313 34.5248 64.445 34.5845 64.5833C35.7913 67.3913 38.2677 70.3972 39.6159 73.2224C41.5753 75.5746 45.216 73.5241 44.2465 70.5952L39.0911 61.6057L34.5013 64.1543Z" fill="#333333"/>
<path d="M71.4695 28.8139C72.8476 28.6238 73.7212 30.2469 72.7847 31.3154L66.7304 34.8069C65.1638 35.2751 64.1661 33.2104 65.4294 32.2079C66.2591 31.5496 69.9469 29.4314 70.9479 29.0056C71.1066 28.938 71.3061 28.8359 71.4711 28.8139H71.4695Z" fill="#333333"/>
<path d="M61.0879 27.8082C59.9283 28.9663 57.9971 27.5552 58.7136 26.0814L62.0212 20.4325C63.239 19.3891 64.903 20.3649 64.4898 21.9598L61.0895 27.8098L61.0879 27.8082Z" fill="#333333"/>
<path d="M76.0531 43.2463C75.8252 43.4648 75.4057 43.6046 75.0914 43.6392C73.8846 43.7759 69.8857 43.8089 68.7354 43.6313C67.1264 43.383 67.0541 40.9412 68.7386 40.704C69.8527 40.5468 74.2272 40.5327 75.3193 40.7008C76.4836 40.8799 76.8419 42.4937 76.0531 43.2463Z" fill="#333333"/>
</svg>
