<svg width="94" height="94" viewBox="0 0 94 94" fill="none" xmlns="http://www.w3.org/2000/svg">
<circle cx="47" cy="47" r="47" fill="#B9FA98"/>
<g clip-path="url(#clip0_127_4)">
<path d="M63.1971 20.95C63.5227 21.1212 63.9462 21.095 64.3012 21.1812C67.1811 21.8787 69.7086 24.245 70.5874 27.1362C70.7747 27.75 70.8322 28.3962 70.9999 29.0125V60.8875C70.8322 61.5037 70.7747 62.15 70.5874 62.7637C69.7172 65.625 67.1677 68.0499 64.3012 68.7187C63.9132 68.8087 63.4664 68.7912 63.1054 68.95H31.8944C31.291 68.7787 30.6582 68.72 30.0573 68.5287C27.4723 67.7087 25.2153 65.4037 24.4111 62.7625C24.2239 62.1487 24.1663 61.5024 23.9987 60.8862V29.0125C24.4234 24.9275 27.7611 21.3675 31.8026 20.95H63.1971ZM41.5331 32.7625L35.4133 24.2462C32.4636 24.0662 29.6436 24.215 27.9998 27.0512C27.6669 27.6262 27.2128 28.8762 27.2128 29.5287V32.7637H41.5331V32.7625ZM55.4862 32.7625L49.2905 24.2312H39.5136L45.5721 32.7625H55.4862ZM67.787 32.7625V29.5275C67.787 27.0112 65.0698 24.23 62.5999 24.23H53.4667L53.6148 24.595L59.5718 32.7612H67.787V32.7625ZM27.3511 36.0437L27.214 36.1837V60.3712C27.214 63.13 30.1062 65.735 32.7634 65.6725H62.2388C64.8923 65.7637 67.7882 63.1049 67.7882 60.3712V36.185L67.6511 36.045H27.3511V36.0437Z" fill="#333333"/>
<path d="M41.3814 42.0762C41.8172 41.6587 42.5001 41.5524 43.0681 41.7412C47.1842 44.3212 51.7435 46.5299 55.7899 49.1862C56.5475 49.6837 57.1142 50.1274 56.949 51.1787C56.8327 51.9174 56.2697 52.2074 55.7311 52.5599C51.7276 55.1799 47.2552 57.3462 43.2064 59.9249C42.1232 60.3674 40.9592 59.7174 40.8857 58.4999V43.2112C40.8906 42.8299 41.1134 42.3312 41.3802 42.0762H41.3814ZM44.1035 46.1687V55.5437L51.9993 50.8099L44.1035 46.1687Z" fill="#333333"/>
</g>
<defs>
<clipPath id="clip0_127_4">
<rect width="47" height="48" fill="white" transform="translate(24 20.95)"/>
</clipPath>
</defs>
</svg>
