<svg width="94" height="94" viewBox="0 0 94 94" fill="none" xmlns="http://www.w3.org/2000/svg">
<circle cx="47" cy="47" r="47" fill="#B9FA98"/>
<path d="M64.237 16.0803C66.9728 16.6756 68.6319 18.773 68.3855 21.5948C68.3198 22.3384 67.9853 22.8491 67.8226 23.5378C70.1447 23.2543 72.2877 24.7238 72.8133 26.9831C73.1837 36.8467 72.8731 46.7713 72.9731 56.6572C73.009 58.8808 70.9496 61.2781 68.6618 61.2781H50.7983L52.1573 66.7183C53.6043 66.8296 55.3471 66.4719 56.6568 67.1992C58.0023 67.9459 58.5563 69.3649 58.4144 70.8523C58.5563 70.9918 61.7103 70.686 62.3987 70.9547C63.344 71.3228 63.1827 72.7849 62.2225 73.0774H31.7566C30.7964 72.7849 30.6351 71.3228 31.5804 70.9547C32.2688 70.686 35.4228 70.9918 35.5647 70.8523C35.4213 69.3649 35.9768 67.9459 37.3223 67.1992C38.6305 66.4719 40.3747 66.8281 41.8218 66.7183L43.1808 61.2781H25.3173C23.0489 61.2781 20.9582 58.8704 21.006 56.6572L21 28.1542C21.1658 25.7347 22.4426 24.0455 24.8678 23.5378L55.8742 23.52C56.2132 23.4042 59.2164 18.4078 59.9242 17.6374C60.3424 17.1817 60.7963 16.8863 61.3399 16.5954L62.7825 16.0803H64.2385H64.237ZM63.0901 18.3366C62.4913 18.4167 61.9865 18.7448 61.5684 19.1604L54.7244 29.2749L57.9321 31.6529L58.2517 31.5624C59.5912 29.8242 61.0562 28.1854 62.442 26.4858C63.1334 25.6397 65.8931 22.5181 66.0873 21.7595C66.5905 19.7972 65.1106 18.062 63.0886 18.3351L63.0901 18.3366ZM54.3809 25.7659H24.9813C24.5422 25.7659 23.7015 26.5763 23.5238 26.989C23.4655 27.1241 23.246 27.8484 23.246 27.9375V49.2561H26.5493C26.9107 49.2561 27.5588 49.8009 27.6111 50.212C27.6633 50.6232 27.3124 51.4827 26.8853 51.4827H23.4133L23.246 51.6489V56.8813C23.246 56.9541 23.4297 57.53 23.4805 57.6502C23.8747 58.578 24.7886 58.9981 25.7623 59.0559H68.1078C69.1218 59.0456 70.1701 58.5646 70.5375 57.576C70.5748 57.4751 70.7346 56.8264 70.7346 56.77V51.6489L70.5673 51.4827H26.1013C25.6742 51.4827 25.3233 50.6232 25.3755 50.212C25.4278 49.8009 26.0759 49.2561 26.4373 49.2561H70.7331V27.9375C70.7331 27.7624 70.4553 26.9578 70.3359 26.7738C69.3368 25.2359 67.382 25.8802 65.8289 25.7911L55.7817 38.0149C55.6353 38.3267 56.0475 39.6952 56.0505 40.1955C56.0669 42.7204 54.4137 45.0791 51.9004 45.6209C49.6738 46.1018 47.4099 45.1874 45.3237 46.2087C44.3635 46.6792 43.0956 48.3284 42.3654 46.3363C41.5724 44.1736 41.4081 40.6898 42.0324 38.4825C42.9986 35.064 45.9046 33.5841 49.293 33.3421L54.3809 25.7644V25.7659ZM54.366 36.3272L56.6 33.5024L53.7671 31.3293L53.4431 31.2284L51.3763 34.2847C52.0543 34.8191 52.7292 35.398 53.4475 35.8774C53.6432 36.0081 54.1673 36.4415 54.3645 36.3287L54.366 36.3272ZM53.4505 38.6013L49.4842 35.6978C48.8167 35.5999 48.1417 35.7334 47.501 35.9042C43.6736 36.9299 43.4958 40.997 44.1903 44.2449C45.2281 43.7936 46.3467 43.5131 47.4876 43.4596C49.5126 43.3661 51.7929 44.2315 53.1982 42.2335C53.7761 41.4127 54.0449 39.4281 53.4505 38.5998V38.6013ZM44.1888 66.7346H49.7888L48.4881 61.2721L45.4312 61.2899L44.1888 66.7346ZM56.1729 70.8538C56.261 69.7731 56.0296 69.1096 54.8722 68.9731C49.8456 69.2313 44.4008 68.5886 39.4235 68.9552C38.078 69.0547 37.6912 69.4688 37.8047 70.8523H56.1729V70.8538Z" fill="#333333"/>
</svg>
