<svg width="94" height="94" viewBox="0 0 94 94" fill="none" xmlns="http://www.w3.org/2000/svg">
<circle cx="47" cy="47" r="47" fill="#B9FA98"/>
<path d="M38.3728 23.9997H55.6218V21.8133C55.6218 21.7667 55.8368 21.1801 55.8852 21.0767C56.5185 19.7502 58.365 19.6402 59.2466 20.8134C59.3166 20.9068 59.6216 21.4017 59.6216 21.4384V24.0014C62.3181 24.1214 64.9813 23.5931 67.5411 24.6446C70.536 25.8745 72.7158 28.8225 73.0025 32.0571V64.0631C72.5425 68.171 69.271 71.4622 65.1829 71.9938L29.0567 72.0022C24.9853 71.6372 21.6505 68.4243 21.0355 64.3998L21.0022 31.8154C21.4222 28.5808 23.6604 25.6778 26.7169 24.5313C29.1617 23.6148 31.8199 24.133 34.3747 24.0014V21.4384C34.3747 21.4017 34.6797 20.9068 34.7497 20.8134C35.6647 19.5953 37.5329 19.7719 38.1479 21.1651C38.1912 21.2617 38.3745 21.7767 38.3745 21.8133V23.9997H38.3728ZM34.3731 27.9992C31.1316 28.0576 26.6435 27.296 25.3686 31.1822C25.2569 31.5205 24.9986 32.5137 24.9986 32.812V35.9982H68.9961V32.812C68.9961 32.5137 68.7377 31.5205 68.6261 31.1822C67.3511 27.296 62.8631 28.0592 59.6216 27.9992V30.5622C59.6216 30.5989 59.3166 31.0938 59.2466 31.1872C58.3317 32.4054 56.4635 32.2287 55.8485 30.8355C55.8052 30.7389 55.6218 30.224 55.6218 30.1873V28.0009H38.3728V30.1873C38.3728 30.224 38.1879 30.7389 38.1462 30.8355C37.5312 32.2287 35.663 32.4054 34.7481 31.1872C34.6781 31.0938 34.3731 30.5989 34.3731 30.5622V27.9992ZM68.9961 39.9978H24.9986V63.1816C24.9986 65.9296 27.4102 67.971 30.0617 67.9926L63.6897 68.001C66.4329 68.061 68.9961 66.0462 68.9961 63.1832V39.9978Z" fill="#333333"/>
<path d="M53.59 47.5283C55.1416 47.4433 56.1815 49.2264 55.3749 50.5629L45.7555 60.1918C45.0805 60.5401 44.4172 60.5717 43.7522 60.1801L38.5975 54.9607C37.8093 53.2609 39.3525 51.5678 41.1224 52.1877C42.0307 52.506 44.5572 55.6207 44.8105 55.6207L52.4917 47.9316C52.7517 47.74 53.285 47.5466 53.59 47.53V47.5283Z" fill="#333333"/>
</svg>
