<svg width="94" height="94" viewBox="0 0 94 94" fill="none" xmlns="http://www.w3.org/2000/svg">
<circle cx="47" cy="47" r="47" fill="#B9FA98"/>
<g clip-path="url(#clip0_127_3)">
<path d="M55.4238 61.0804C55.6088 62.9482 55.8126 64.8237 56.4271 66.6101C56.5917 67.0897 56.8253 68.0582 57.3568 68.1197C58.8743 68.298 60.4813 67.6754 61.8279 68.6931C64.0196 70.3457 62.9175 73.7985 60.1897 73.9984L35.9918 73.9661C33.7452 73.571 32.7168 70.8761 34.1983 69.1497C35.6798 67.4233 37.3259 68.3334 39.1445 68.1197C39.7057 68.0536 39.8954 67.079 40.0506 66.587C40.6166 64.7961 40.8031 62.9406 40.9599 61.0804H26.0869C24.2024 61.0804 22.1158 58.4701 22.2663 56.6407L22.26 28.7356C22.2726 26.5158 23.7807 24.5019 26.0869 24.1868L50.9902 24.1637C51.2944 23.95 51.3539 23.6887 51.7145 23.4904C52.2381 23.2014 52.837 23.3966 53.1192 22.9077C53.693 21.9146 51.9309 21.4765 52.8887 20.1452C53.022 19.9607 54.1225 18.8815 54.3044 18.7662C55.4614 18.0237 55.9725 19.3258 56.7187 19.1844C57.7158 18.9938 57.1922 17.8208 57.9682 17.2858C58.4542 16.9507 60.1395 16.9445 60.7164 17.0921C61.8467 17.3827 61.3905 18.6648 62.0161 19.0445C62.9238 19.5933 63.2891 18.3758 64.2689 18.5587C64.7612 18.6494 66.3179 20.1375 66.4261 20.6064C66.6691 21.6594 65.4713 21.9577 65.915 22.8324C66.2129 23.4212 66.7349 23.1891 67.2852 23.4489C67.6803 23.6349 67.8794 24.1038 68.0832 24.1652C68.7667 24.3712 70.4959 24.0915 71.3535 24.1868C72.581 24.3221 73.8038 25.5442 74.086 26.6956C74.4246 36.6543 74.1393 46.6652 74.2318 56.6422C74.3666 58.4778 72.3223 61.082 70.4113 61.082H55.4206L55.4238 61.0804ZM59.9984 18.6633H59.0813C58.7489 20.6279 56.6309 21.3797 54.9519 20.3174L54.3985 20.8969C55.5272 22.5388 54.6618 24.5311 52.7132 24.9462L52.732 25.7871C54.7559 26.1007 55.4253 28.1976 54.422 29.8363L55.0115 30.379C56.6779 29.2875 58.727 30.1207 59.1409 32.0316L59.9984 32.0132C60.3182 30.0285 62.4566 29.3721 64.1278 30.356L64.6859 29.7764C63.507 28.1807 64.4492 26.1192 66.3665 25.7271L66.3477 24.8862C65.0763 24.7556 64.0698 23.5411 64.1325 22.2974C64.1623 21.724 64.7862 21.1152 64.4852 20.6602C64.0745 20.0422 63.2906 20.7863 62.6385 20.8324C61.3843 20.92 60.1207 19.8839 59.9984 18.6602V18.6633ZM23.9124 28.3944V52.4347H72.5904V27.472C72.5904 27.3521 72.3787 26.7541 72.2925 26.6111C71.493 25.2952 69.3091 25.9547 68.0048 25.7994C68.1271 27.3736 67.1739 27.0969 66.2724 27.5027C65.0167 28.0669 66.7239 29.1415 66.3994 30.1623C66.3116 30.4405 65.117 31.6627 64.8348 31.8579C63.4803 32.7956 63.0037 31.0585 62.0145 31.6288C61.3325 32.0208 62.0396 33.4828 60.3088 33.6473C59.7052 33.7042 58.451 33.7242 57.9698 33.3937C57.2486 32.8956 57.6374 31.8917 56.979 31.5935C56.1904 31.2384 55.7671 32.1438 55.013 32.1438C54.2589 32.1438 52.7367 30.7111 52.6254 29.9793C52.4999 29.1522 53.9548 28.0254 52.8072 27.5043C51.9121 27.0969 50.951 27.3782 51.0749 25.8009L26.0963 25.8086C24.8687 26.1207 24.0488 27.1876 23.914 28.3959L23.9124 28.3944ZM72.5904 54.0473H23.9124V56.8728C23.9124 56.9497 24.1209 57.6369 24.1742 57.7691C24.5426 58.7084 25.4425 59.2987 26.4412 59.4663L70.4536 59.3879C71.3111 59.1173 72.0683 58.5454 72.3631 57.6861C72.4117 57.5462 72.592 56.8436 72.592 56.7575V54.0488L72.5904 54.0473ZM41.3142 68.1136H55.1886C54.5882 66.3365 54.11 64.5055 53.8968 62.6362C53.8388 62.1273 54.0081 61.577 53.7604 61.0973L42.6123 61.0881C42.4728 63.4894 42.0557 65.8261 41.3126 68.1151L41.3142 68.1136ZM36.1062 69.7523C34.7329 70.2858 34.8834 72.1997 36.4323 72.3827H60.0705C61.7934 72.1782 61.6649 69.8968 60.1881 69.7262L36.1062 69.7523Z" fill="#333333"/>
<path d="M37.9937 28.2513C38.6961 28.1498 40.2623 28.1299 40.8643 28.4896C41.8974 29.1076 41.2186 30.8017 42.5762 31.0769C44.0326 31.372 44.1831 29.9085 45.6129 30.4066C46.2212 30.6188 47.8845 32.279 47.9927 32.9201C48.2012 34.1545 46.5974 34.5466 47.3625 35.9547C47.8657 36.8817 48.9835 36.4067 49.6075 36.9816C50.2941 37.615 50.2957 40.0593 49.885 40.8326C49.3284 41.8795 47.6086 41.2492 47.2481 42.3975C46.7934 43.8426 48.2498 44.084 47.9927 45.3169C47.8971 45.7781 46.0127 47.7012 45.5847 47.7981C44.0217 48.1486 43.6391 46.4114 42.2172 47.2631C41.2327 47.8519 41.8849 49.0172 40.8862 49.6474C40.2905 50.0241 37.8511 50.0302 37.2381 49.6905C36.1501 49.0879 36.8963 47.9948 35.9008 47.3123C34.4507 46.3177 33.9584 48.3115 32.4769 47.7889C32.1336 47.6674 30.5329 46.1808 30.3291 45.858C29.3101 44.2485 31.6288 43.755 30.7179 42.2484C30.0626 41.1646 28.2864 41.9456 28.0387 40.3791C27.9681 39.9286 27.9728 37.8302 28.1202 37.4751C28.5905 36.339 30.1347 36.9263 30.7179 35.987C31.6711 34.4528 29.343 33.9316 30.3291 32.3774C30.5721 31.9946 32.2841 30.4081 32.7042 30.3236C33.9788 30.0669 34.4475 31.7271 35.8757 30.8985C36.9481 30.2759 36.0137 28.5372 37.9985 28.2528L37.9937 28.2513ZM39.8985 29.8409L38.1411 29.8363C38.0988 32.1069 35.7315 33.3382 33.6652 32.4374C33.3031 32.279 33.209 31.8563 32.7858 32.1345C32.6776 32.2052 31.8122 33.0692 31.7997 33.1368C33.4975 35.2291 32.2809 37.8856 29.6675 38.3222L29.6754 39.9809C31.6758 40.0224 33.0538 42.0486 32.4361 43.901C32.3484 44.1624 31.7855 44.9295 31.8435 45.0571L33.024 46.1885C34.9571 44.5036 38.0361 45.7612 38.1411 48.2823L39.8923 48.2716C40.0647 45.7996 43.1531 44.4698 45.0187 46.2039L46.2447 44.9817C44.6488 43.0248 45.7948 40.1685 48.3752 39.9302L48.4756 38.2653C45.9029 38.0762 44.6268 35.2307 46.2384 33.2168L45.1191 32.0454C42.9932 33.555 40.1086 32.4635 39.8985 29.8424V29.8409Z" fill="#333333"/>
<path d="M53.392 38.2762L69.0081 38.2485C70.0836 38.3162 70.2843 39.7351 69.1257 39.8673H53.4829C52.4686 39.8473 52.4968 38.4714 53.392 38.2762Z" fill="#333333"/>
<path d="M53.2744 43.3508L69.1241 43.3247C70.2576 43.4477 70.104 44.8635 69.0065 44.9435H53.5989C52.6771 44.9589 52.34 43.5615 53.2744 43.3508Z" fill="#333333"/>
<path d="M52.9891 49.7475C52.3824 49.2663 52.801 48.3716 53.5989 48.2809C55.9882 48.0073 58.9073 48.4838 61.3545 48.2901C62.3845 48.45 62.4252 49.8182 61.3639 49.8997C58.8493 49.7367 56.0775 50.1088 53.5958 49.9028C53.3779 49.8843 53.1694 49.892 52.9875 49.7475H52.9891Z" fill="#333333"/>
<path d="M64.0243 25.3505C64.0243 27.784 62.0129 29.7564 59.5312 29.7564C57.0495 29.7564 55.0381 27.784 55.0381 25.3505C55.0381 22.9169 57.0495 20.9446 59.5312 20.9446C62.0129 20.9446 64.0243 22.9169 64.0243 25.3505ZM62.3892 25.3382C62.3892 23.7947 61.113 22.5434 59.539 22.5434C57.965 22.5434 56.6889 23.7947 56.6889 25.3382C56.6889 26.8816 57.965 28.133 59.539 28.133C61.113 28.133 62.3892 26.8816 62.3892 25.3382Z" fill="#333333"/>
<path d="M44.7632 39.094C44.7632 42.1948 42.2 44.7098 39.0363 44.7098C35.8726 44.7098 33.3094 42.1963 33.3094 39.094C33.3094 35.9918 35.8726 33.4783 39.0363 33.4783C42.2 33.4783 44.7632 35.9918 44.7632 39.094ZM43.1155 39.0894C43.1155 36.8803 41.2891 35.0894 39.0363 35.0894C36.7835 35.0894 34.9571 36.8803 34.9571 39.0894C34.9571 41.2985 36.7835 43.0895 39.0363 43.0895C41.2891 43.0895 43.1155 41.2985 43.1155 39.0894Z" fill="#333333"/>
</g>
<defs>
<clipPath id="clip0_127_3">
<rect width="52" height="57" fill="white" transform="translate(22.26 17)"/>
</clipPath>
</defs>
</svg>
