<svg width="94" height="94" viewBox="0 0 94 94" fill="none" xmlns="http://www.w3.org/2000/svg">
<circle cx="47" cy="47" r="47" fill="#B9FA98"/>
<g clip-path="url(#clip0_127_8)">
<path d="M23.3926 21.5C26.3596 22.4509 29.4794 22.941 32.457 23.8415C34.2155 24.3727 35.6552 25.1165 37.0404 26.3304L45.9534 35.1505L58.8509 22.3434C59.4153 21.9024 60.0754 21.7085 60.7461 21.5H61.9414C62.7794 21.7178 63.4594 21.9914 64.1341 22.5452C66.3136 25.0474 69.3085 27.2986 71.4069 29.8154C71.986 30.51 72.2809 31.1847 72.5 32.0586V33.2539C72.2915 33.9246 72.0962 34.5847 71.6566 35.1491L58.8509 48.0452L70.6592 59.9479C71.298 60.7527 71.8572 61.6439 72.1534 62.6373C72.3008 63.1314 72.3526 63.6441 72.5013 64.1328V65.7266C72.3526 66.2153 72.3008 66.728 72.1534 67.222C71.4906 69.4466 69.5184 71.4428 67.2991 72.1295C66.7824 72.2902 66.2432 72.3473 65.7266 72.5H64.1328C63.6441 72.3512 63.1314 72.2995 62.6373 72.152C61.6439 71.8559 60.7527 71.298 59.9479 70.6579L48.0452 58.8495L35.1491 71.6553C34.5847 72.0963 33.9246 72.2902 33.2539 72.4987H32.0586C31.1847 72.2795 30.51 71.9847 29.8154 71.4056C27.2986 69.3085 25.0474 66.3123 22.5452 64.1328C21.9927 63.4581 21.7178 62.7781 21.5 61.9401V60.7448C21.7085 60.0741 21.9037 59.414 22.3434 58.8495L35.1491 45.9534L26.3291 37.0404C23.0791 33.327 23.0991 27.8883 21.5 23.3926V22.5957C21.751 22.0113 22.0645 21.8002 22.5957 21.5H23.3926ZM61.1193 24.5095C60.9081 24.5507 60.6544 24.7366 60.4951 24.8841L24.7048 60.7129C24.4179 61.122 24.4126 61.5695 24.6875 61.9919L32.0679 69.3537C33.1928 69.9885 34.0149 68.4824 34.7427 67.8542C34.007 66.6775 30.6654 64.765 32.6084 63.2363C34.2261 61.964 35.776 64.8102 36.9049 65.619L39.2305 63.3851L34.505 58.649C33.5979 57.2611 35.1212 55.6594 36.537 56.5173L41.3595 61.2375L43.6066 58.9903C43.6544 58.718 41.2346 56.7484 41.0009 56.2384C40.3833 54.8891 41.8509 53.5251 43.1511 54.2874C43.6252 54.5663 45.5723 56.86 45.7555 56.86L47.9895 54.6075C46.7596 53.0084 44.8962 51.6843 43.612 50.141C42.3277 48.5977 43.7368 46.7995 45.5005 47.7544L50.2247 52.3723L52.3723 50.1516C51.5475 49.032 48.4902 47.2696 50.1344 45.7011C51.7268 44.1817 53.4082 47.1687 54.5358 47.9895L56.8613 45.7555L52.1359 41.0195C51.2287 39.6316 52.7521 38.0298 54.1679 38.8878L58.9903 43.608L61.2375 41.3608C61.2853 41.0885 58.8655 39.1189 58.6317 38.6089C58.0141 37.2595 59.4817 35.8955 60.7819 36.6579C61.2561 36.9368 63.2031 39.2305 63.3864 39.2305L65.5831 37.0404L65.534 36.7894C64.243 35.3245 62.4753 33.9923 61.2428 32.5115C59.9173 30.9191 61.3676 29.1699 63.1314 30.1248L67.7838 34.7427C68.5143 34.0773 70.0961 33.0945 69.2687 31.9563L62.0463 24.734C61.7887 24.5188 61.4473 24.4471 61.1206 24.5095H61.1193ZM25.0859 25.0859C26.0382 28.0769 26.2441 32.0692 28.1752 34.5953C28.3637 34.841 29.7782 36.387 29.9362 36.4295C30.3745 36.5477 35.6166 30.7398 36.4295 30.0943C36.4759 29.9708 36.4082 29.9044 36.3458 29.8114C36.1067 29.4555 34.9765 28.4647 34.5953 28.1738C33.6523 27.4566 32.708 27.0502 31.5805 26.7063C29.4767 26.0634 27.2189 25.6411 25.0846 25.0846L25.0859 25.0859ZM38.6328 32.0998L32.0998 38.6328L37.3379 43.8709L43.8709 37.3379L38.6328 32.0998ZM56.6634 50.1277L50.1291 56.6621L56.5134 63.0464L63.0477 56.512L56.6634 50.1277ZM68.1823 68.1823C69.0602 67.3044 69.5834 65.9231 69.5157 64.6773C69.3723 62.0357 66.7798 60.4526 65.1661 58.6623L58.6623 65.093C58.6384 65.2139 58.7446 65.2564 58.8017 65.3308C59.4392 66.1609 61.8604 68.4705 62.7476 68.9552C64.4954 69.9115 66.7718 69.5927 68.1836 68.1809L68.1823 68.1823Z" fill="#333333"/>
</g>
<defs>
<clipPath id="clip0_127_8">
<rect width="51" height="51" fill="white" transform="translate(21.5 21.5)"/>
</clipPath>
</defs>
</svg>
